<?xml version="1.0" encoding="utf-8"?>
<?xml-stylesheet type="text/xsl" href="rss1.xsl"?>
<rss version="2.0" xmlns:atom="http://www.w3.org/2005/Atom" xmlns:content="http://purl.org/rss/1.0/modules/content/" xmlns:dc="http://purl.org/dc/elements/1.1/" xmlns:media="http://search.yahoo.com/mrss/">
<channel>
 <title>Getty</title>
 <link>http://www.gettyimg.com/</link>
 <atom:link href="http://www.gettyimg.com/" rel="self" type="application/rss+xml" />

 
                <item>
                <title><![CDATA[【HD Live Performances】WEB-DL - 2017-RDMA-Radio-Disney-Music-Awards.2017.1080p.DSNY.WEB-DL.AAC2.0.x264-Samuel]]></title>
                <link><![CDATA[https://sharemania.us/threads/2017-rdma-radio-disney-music-awards-2017-1080p-dsny-web-dl-aac2-0-x264-samuel.233743/]]></link>
                <description><![CDATA[<article>
<blockquote class="messageText SelectQuoteContainer ugc baseHtml">
<div style="text-align: center"><b><span style="font-size: 26px">2017 RDMA | Radio Disney Music Awards</span></b><br>
<img src="https://i.imgur.com/PUtpMbX.jpg" class="bbCodeImage LbImage" alt="[​IMG]" data-url="https://i.imgur.com/PUtpMbX.jpg" style=""><br>
<br>
2017 • 1h 39m • HD • TV-G<br>
<br>
<div class="bbCodeBlock bbCodeQuote">
<aside>
<blockquote class="quoteContainer"><div class="quote"><b><span style="font-size: 15px"><span style="font-family: 'Arial'">Description</span></span></b><br>
Watch the full 2017 Radio Disney Music Awards here! Rated: TV-G</div><div class="quoteExpand">Click to expand...</div></blockquote>
</aside>
</div>
<div class="bbCodeBlock bbCodeQuote">
<aside>
<blockquote class="quoteContainer"><div class="quote"><b><span style="font-size: 15px">Source</span></b><br>
<img src="https://i.imgur.com/gl94tWr.png" class="bbCodeImage LbImage" alt="[​IMG]" data-url="https://i.imgur.com/gl94tWr.png" style=""></div><div class="quoteExpand">Click to expand...</div></blockquote>
</aside>
</div>
<div class="bbCodeBlock bbCodeQuote">
<aside>
<blockquote class="quoteContainer"><div class="quote"><b><span style="font-size: 15px">Release Name</span></b><br>
2017-RDMA-Radio-Disney-Music-Awards.2017.1080p.DSNY.WEB-DL.AAC2.0.x264-Samuel</div><div class="quoteExpand">Click to expand...</div></blockquote>
</aside>
</div>
<div class="ToggleTriggerAnchor bbCodeSpoilerContainer">
<button type="button" class="button bbCodeSpoilerButton ToggleTrigger Tooltip JsOnly" data-target="> .SpoilerTarget"><span>Spoiler: <span class="SpoilerTitle">Media Information</span></span></button>
<div class="SpoilerTarget bbCodeSpoilerText">General<br>
Complete name : 2017-RDMA-Radio-Disney-Music-Awards.2017.1080p.DSNY.WEB-DL.AAC2.0.x264-Samuel.mkv<br>
Format : Matroska<br>
Format version : Version 4<br>
File size : 2.81 GiB<br>
Duration : 1 h 39 min<br>
Overall bit rate : 4 052 kb/s<br>
Frame rate : 23.976 FPS<br>
Encoded date : 2023-12-10 10:34:39 UTC<br>
Writing application : mkvmerge v81.0 ('Milliontown') 64-bit<br>
Writing library : libebml v1.4.4 + libmatroska v1.7.1 / Lavf60.9.100<br>
<br>
Video<br>
ID : 1<br>
Format : AVC<br>
Format/Info : Advanced Video Codec<br>
Format profile : High@L5<br>
Format settings : CABAC / 5 Ref Frames<br>
Format settings, CABAC : Yes<br>
Format settings, Reference frames : 5 frames<br>
Codec ID : V_MPEG4/ISO/AVC<br>
Duration : 1 h 39 min<br>
Bit rate : 4 000 kb/s<br>
Width : 1 920 pixels<br>
Height : 1 080 pixels<br>
Display aspect ratio : 16:9<br>
Frame rate mode : Constant<br>
Frame rate : 23.976 (23976/1000) FPS<br>
Color space : YUV<br>
Chroma subsampling : 4:2:0<br>
Bit depth : 8 bits<br>
Scan type : Progressive<br>
Bits/(Pixel*Frame) : 0.080<br>
Stream size : 2.72 GiB (97%)<br>
Writing library : x264 core 148 r2721 72d53ab<br>
Encoding settings : cabac=1 / ref=6 / deblock=1:0:0 / analyse=0x3:0x111 / me=hex / subme=7 / psy=1 / psy_rd=1.00:0.00 / mixed_ref=1 / me_range=16 / chroma_me=1 / trellis=1 / 8x8dct=1 / cqm=0 / deadzone=21,11 / fast_pskip=1 / chroma_qp_offset=-2 / threads=4 / lookahead_threads=1 / sliced_threads=0 / nr=0 / decimate=1 / interlaced=0 / bluray_compat=0 / stitchable=1 / constrained_intra=0 / bframes=16 / b_pyramid=1 / b_adapt=1 / b_bias=0 / direct=1 / weightb=1 / open_gop=0 / weightp=2 / keyint=48 / keyint_min=20 / scenecut=40 / intra_refresh=0 / rc_lookahead=40 / rc=cbr / mbtree=1 / bitrate=4000 / ratetol=1.0 / qcomp=0.60 / qpmin=10 / qpmax=50 / qpstep=4 / vbv_maxrate=4000 / vbv_bufsize=8000 / nal_hrd=none / filler=0 / ip_ratio=1.41 / aq=1:1.00<br>
Default : Yes<br>
Forced : No<br>
<br>
Audio<br>
ID : 2<br>
Format : AAC LC<br>
Format/Info : Advanced Audio Codec Low Complexity<br>
Codec ID : A_AAC-2<br>
Duration : 1 h 39 min<br>
Bit rate : 128 kb/s<br>
Channel(s) : 2 channels<br>
Channel layout : L R<br>
Sampling rate : 44.1 kHz<br>
Frame rate : 43.066 FPS (1024 SPF)<br>
Compression mode : Lossy<br>
Delay relative to video : -83 ms<br>
Stream size : 90.8 MiB (3%)<br>
Language : English<br>
Default : Yes<br>
Forced : No<br>
<br>
Text<br>
ID : 3<br>
Format : UTF-8<br>
Codec ID : S_TEXT/UTF8<br>
Codec ID/Info : UTF-8 Plain Text<br>
Duration : 1 h 38 min<br>
Bit rate : 91 b/s<br>
Frame rate : 0.296 FPS<br>
Count of elements : 1755<br>
Stream size : 66.2 KiB (0%)<br>
Language : English<br>
Default : No<br>
Forced : No</div>
</div><br>
<b>Screenshots</b><br>
<img src="https://i.imgur.com/3MQ1EEM.png" class="bbCodeImage LbImage" alt="[​IMG]" data-url="https://i.imgur.com/3MQ1EEM.png" style=""><br>
<br>
<b>Download</b><br>
<div class="bbCodeBlock bbCodeVfcHH HiddenContent">
<div class="attribution type">Hidden Content:</div>
<blockquote>You must reply before you can see the hidden data contained here.</blockquote>
</div></div>
<div class="messageTextEndMarker">&nbsp;</div>
</blockquote>
</article>]]></description>
                <author><![CDATA[Samuel]]></author>
                </item>

                
                <item>
                <title><![CDATA[【Actresses】Jamie Bernadette - Milf (2010) [720p]]]></title>
                <link><![CDATA[https://sharemania.us/threads/jamie-bernadette-milf-2010-720p.233742/]]></link>
                <description><![CDATA[<article>
<blockquote class="messageText SelectQuoteContainer ugc baseHtml">
<a href="https://sharemania.us/members/90209/" class="username" data-user="90209, @thedjteazer">@thedjteazer</a> Request Completed.
<div class="messageTextEndMarker">&nbsp;</div>
</blockquote>
</article>]]></description>
                <author><![CDATA[piqeros]]></author>
                </item>

                
                <item>
                <title><![CDATA[【Singles (lossless)】FLAC - Chuu - «A Beautiful Farewell» [FLAC 24Bit/48kHz]]]></title>
                <link><![CDATA[https://sharemania.us/threads/chuu-%C2%ABa-beautiful-farewell%C2%BB-flac-24bit-48khz.233741/]]></link>
                <description><![CDATA[<article>
<blockquote class="messageText SelectQuoteContainer ugc baseHtml">
Jamie Bernadette - Milf (2010) [720p]<br>
<br>
<a href="https://imgbox.com/hzdis6fj" target="_blank" class="externalLink" rel="nofollow"><img src="https://thumbs2.imgbox.com/69/7f/hzdis6fj_t.jpg" class="bbCodeImage LbImage" alt="[​IMG]" data-url="https://thumbs2.imgbox.com/69/7f/hzdis6fj_t.jpg"></a> <a href="https://imgbox.com/q7bIPzck" target="_blank" class="externalLink" rel="nofollow"><img src="https://thumbs2.imgbox.com/4a/a9/q7bIPzck_t.jpg" class="bbCodeImage LbImage" alt="[​IMG]" data-url="https://thumbs2.imgbox.com/4a/a9/q7bIPzck_t.jpg"></a> <a href="https://imgbox.com/fzxzPNCn" target="_blank" class="externalLink" rel="nofollow"><img src="https://thumbs2.imgbox.com/25/b1/fzxzPNCn_t.jpg" class="bbCodeImage LbImage" alt="[​IMG]" data-url="https://thumbs2.imgbox.com/25/b1/fzxzPNCn_t.jpg"></a> <a href="https://imgbox.com/CKWtM6nj" target="_blank" class="externalLink" rel="nofollow"><img src="https://thumbs2.imgbox.com/d2/4e/CKWtM6nj_t.jpg" class="bbCodeImage LbImage" alt="[​IMG]" data-url="https://thumbs2.imgbox.com/d2/4e/CKWtM6nj_t.jpg"></a> <a href="https://imgbox.com/gByXwy5R" target="_blank" class="externalLink" rel="nofollow"><img src="https://thumbs2.imgbox.com/97/32/gByXwy5R_t.jpg" class="bbCodeImage LbImage" alt="[​IMG]" data-url="https://thumbs2.imgbox.com/97/32/gByXwy5R_t.jpg"></a> <a href="https://imgbox.com/ptlYaVrL" target="_blank" class="externalLink" rel="nofollow"><img src="https://thumbs2.imgbox.com/8d/62/ptlYaVrL_t.jpg" class="bbCodeImage LbImage" alt="[​IMG]" data-url="https://thumbs2.imgbox.com/8d/62/ptlYaVrL_t.jpg"></a><br>
Duration: 0:01:04 Resolution: 1280x720 Format: mp4 Size: 10.79 MB<br>
<div class="bbCodeBlock bbCodeVfcHH HiddenContent">
<div class="attribution type">Hidden Content:</div>
<blockquote>You must either reply or click 'Like' to see the hidden information contained here.</blockquote>
</div>
<div class="messageTextEndMarker">&nbsp;</div>
</blockquote>
</article>]]></description>
                <author><![CDATA[WithLoveSNSD]]></author>
                </item>

                </channel></rss>